<?xml version="1.0" encoding="UTF-8"?><svg xmlns="http://www.w3.org/2000/svg" xmlns:xlink="http://www.w3.org/1999/xlink" height="274.3" preserveAspectRatio="xMidYMid meet" version="1.1" viewBox="130.7 75.5 163.8 274.3" width="163.8" zoomAndPan="magnify">
 <g id="surface1">
  <g id="change1_1"><path d="m294.5 207.94c0-8.85-7.18-16.03-16.03-16.03h-131.74c-8.85 0-16.03 7.18-16.03 16.03v23.56c0 8.86 7.18 16.04 16.03 16.04h131.74c8.85 0 16.03-7.18 16.03-16.04v-23.56" fill="#344c97"/></g>
  <g id="change1_2"><path d="m270.82 86.855c0-6.296-5.1-11.398-11.39-11.398h-93.65c-6.3 0-11.4 5.102-11.4 11.398v16.755c0 6.29 5.1 11.39 11.4 11.39h93.65c6.29 0 11.39-5.1 11.39-11.39v-16.755" fill="#344c97"/></g>
  <g id="change2_1"><path d="m256.86 115h-88.52l-13.96 76.91h116.44l-13.96-76.91" fill="#3b5fb5"/></g>
  <g id="change3_1"><path d="m228.1 247.54h-36.61v76.28c0 1.23 0.4 2.43 1.15 3.41l15.5 20.31c1.06 1.39 2.71 2.2 4.46 2.2s3.4-0.81 4.46-2.2l15.5-20.31c0.74-0.98 1.15-2.18 1.15-3.41v-76.28h-5.61" fill="#808ea6"/></g>
 </g>
</svg>